solid AssimpScene
 facet normal -2.98023e-08 0 -1
  outer loop
  vertex 1 1 -1
  vertex 1 -1 -1
  vertex -1 -1 -1
  endloop
 endfacet

 facet normal -9.93411e-09 0 -1
  outer loop
  vertex -1 -1 -1
  vertex -1 1 -1
  vertex 1 1 -1
  endloop
 endfacet

 facet normal 5.96046e-08 0 1
  outer loop
  vertex 1 0.999999 1
  vertex -1 1 1
  vertex -1 -1 1
  endloop
 endfacet

 facet normal 3.97364e-08 0 1
  outer loop
  vertex -1 -1 1
  vertex 0.999999 -1 1
  vertex 1 0.999999 1
  endloop
 endfacet

 facet normal 1 -5.96046e-07 -2.38419e-07
  outer loop
  vertex 1 1 -1
  vertex 1 0.999999 1
  vertex 0.999999 -1 1
  endloop
 endfacet

 facet normal 1 -3.97364e-07 -4.96706e-08
  outer loop
  vertex 0.999999 -1 1
  vertex 1 -1 -1
  vertex 1 1 -1
  endloop
 endfacet

 facet normal -4.76837e-07 -1 -3.57628e-07
  outer loop
  vertex 1 -1 -1
  vertex 0.999999 -1 1
  vertex -1 -1 1
  endloop
 endfacet

 facet normal -3.47694e-07 -1 -2.38419e-07
  outer loop
  vertex -1 -1 1
  vertex -1 -1 -1
  vertex 1 -1 -1
  endloop
 endfacet

 facet normal -1 2.38419e-07 -1.19209e-07
  outer loop
  vertex -1 -1 -1
  vertex -1 -1 1
  vertex -1 1 1
  endloop
 endfacet

 facet normal -1 2.38419e-07 -1.29143e-07
  outer loop
  vertex -1 1 1
  vertex -1 1 -1
  vertex -1 -1 -1
  endloop
 endfacet

 facet normal 2.08616e-07 1 2.98023e-07
  outer loop
  vertex 1 0.999999 1
  vertex 1 1 -1
  vertex -1 1 -1
  endloop
 endfacet

 facet normal 2.28484e-07 1 1.98682e-07
  outer loop
  vertex -1 1 -1
  vertex -1 1 1
  vertex 1 0.999999 1
  endloop
 endfacet

endsolid AssimpScene
